<svg xmlns="http://www.w3.org/2000/svg" xmlns:xlink="http://www.w3.org/1999/xlink" width="150.94" height="71.533" viewBox="0 0 150.94 71.533">
  <defs>
    <clipPath id="clip-path">
      <rect width="150.94" height="71.533" fill="none"/>
    </clipPath>
  </defs>
  <g id="Repeat_Grid_3" data-name="Repeat Grid 3" clip-path="url(#clip-path)">
    <g id="Group_73" data-name="Group 73" transform="translate(0 0)">
      <g id="Group_70" data-name="Group 70" transform="translate(0 0)">
        <path id="Path_26" data-name="Path 26" d="M268.988,200.067c-6.578-.446-12.309,1.374-17.682,4.22l-2.321-1.861-3.424,3.317-.059,3.591a45.506,45.506,0,0,0-4.856,6.206l-2.438-.638-4,6.778,1.28,3.941a57.8,57.8,0,0,0-2.076,6.4v-.009l-3.449.252-1,11.054,2.724,1.757c0,.123,0,.248,0,.371a37.658,37.658,0,0,0,.345,4.731l-2.843,3.561,2.207,7.088,4.026-.857a18.452,18.452,0,0,0,1.393,1.906l-.945,5.976,5.316,3.679,2.847-4.525a17.123,17.123,0,0,0,3.3.86l.818-2.394c-5.774-.863-10.342-5.389-12.549-11.344a31.476,31.476,0,0,1-1.506-14.4C238.588,201.349,268.988,200.067,268.988,200.067Z" transform="translate(-228.958 -200)" fill="#fff"/>
        <path id="Path_27" data-name="Path 27" d="M239.506,281.026l.921-5.822-.28-.335a17.73,17.73,0,0,1-1.334-1.827l-.217-.341-3.891.828-1.842-5.916,2.772-3.471-.067-.483a36.666,36.666,0,0,1-.333-4.58c0-.067,0-.134,0-.2v-.16l0-.548-2.67-1.722.882-9.716,2.945-.216.4-.194.139-.356a56.885,56.885,0,0,1,2.038-6.285l.148-.38-1.248-3.841,3.53-5.979,2.418.633.226-.345a44.814,44.814,0,0,1,4.777-6.1l.234-.25.059-3.566,2.858-2.768,2.238,1.795.263-.14a43.135,43.135,0,0,1,4.44-2.053c-.973.495-1.969,1.054-2.975,1.685-7.583,4.755-17.12,14.663-19.488,34.865a32.4,32.4,0,0,0,1.567,14.944c2.3,6.206,6.811,10.5,12.173,11.643l-.264.772a17.264,17.264,0,0,1-2.79-.766l-.357-.133-2.789,4.432Z" transform="translate(-231.905 -213.646)" fill="#fff"/>
        <path id="Path_28" data-name="Path 28" d="M289.2,505.394a18.338,18.338,0,0,1-9.87-8.724l1.728-.667A18.94,18.94,0,0,0,289.2,505.394Z" transform="translate(-270.161 -442.125)" fill="#fff"/>
        <path id="Path_29" data-name="Path 29" d="M268.245,427.283a26.3,26.3,0,0,0,.947,10.77l-1.866.722a26.691,26.691,0,0,1-1.689-11.22Z" transform="translate(-258.931 -385.913)" fill="#fff"/>
        <path id="Path_30" data-name="Path 30" d="M270.267,341.776l2.4,2.52a42.115,42.115,0,0,0-2.486,6.9,41.363,41.363,0,0,0-.9,4.2l-2.723.284A47.181,47.181,0,0,1,270.267,341.776Z" transform="translate(-259.717 -315.97)" fill="#fff"/>
        <path id="Path_31" data-name="Path 31" d="M298.7,270.233l1.756,4.263a42.3,42.3,0,0,0-4.282,5.122,37.551,37.551,0,0,0-2.8,4.587l-2.439-2.559A41.566,41.566,0,0,1,298.7,270.233Z" transform="translate(-279.653 -257.449)" fill="#fff"/>
        <path id="Path_32" data-name="Path 32" d="M294.266,285.609a40.957,40.957,0,0,1,7.02-10.353l1.307,3.173a43.272,43.272,0,0,0-4.007,4.85,38.228,38.228,0,0,0-2.58,4.158Z" transform="translate(-282.379 -261.558)" fill="#fff"/>
        <path id="Path_33" data-name="Path 33" d="M341.025,235.005a34.953,34.953,0,0,1,8.058-5.252l.581,5.5A22.7,22.7,0,0,0,341.5,240.3l-1.749-4.239Q340.385,235.5,341.025,235.005Z" transform="translate(-319.585 -224.337)" fill="#fff"/>
        <path id="Path_34" data-name="Path 34" d="M343.056,240c.289-.246.584-.487.883-.718a35.656,35.656,0,0,1,7.486-4.975l.443,4.193a22.939,22.939,0,0,0-7.514,4.644Z" transform="translate(-322.288 -228.063)" fill="#fff"/>
        <path id="Path_35" data-name="Path 35" d="M411.094,221.263,409.2,228.1c-.187-.119-.381-.231-.576-.339a15.145,15.145,0,0,0-9.843-1.027l-.6-5.667A15.822,15.822,0,0,1,411.094,221.263Z" transform="translate(-367.38 -216.193)" fill="#fff"/>
        <path id="Path_36" data-name="Path 36" d="M411.005,230l-.014-.006a15.559,15.559,0,0,0-9.6-1.145l-.473-4.483a19.674,19.674,0,0,1,2.571-.74,14.9,14.9,0,0,1,9.258.864l-1.555,5.613Z" transform="translate(-369.615 -219.025)" fill="#fff"/>
        <path id="Path_37" data-name="Path 37" d="M469.441,245.034q-.008-.146-.024-.291a9.656,9.656,0,0,0-4.031-6.221l1.939-7.006c6.052,2.894,9.344,10.9,9.344,10.9Z" transform="translate(-422.352 -225.78)" fill="#fff"/>
        <path id="Path_38" data-name="Path 38" d="M472.272,247.881a10.36,10.36,0,0,0-3.841-5.9l1.631-5.892c4.671,2.861,7.124,7.848,7.968,9.418Z" transform="translate(-424.842 -229.519)" fill="#fff"/>
        <g id="Group_64" data-name="Group 64" transform="translate(39.157 15.379)">
          <path id="Path_39" data-name="Path 39" d="M444.138,286.13l.206.072.226-1.3-.214-.075.058-.334.471.165-.284,1.637.19.067-.054.312-.653-.228Z" transform="translate(-444.084 -284.489)" fill="#fff"/>
          <path id="Path_40" data-name="Path 40" d="M449.033,287.455c.2-1.164,1.406-.74,1.2.421l-.049.282c-.2,1.161-1.406.742-1.2-.422Zm.208.371c-.123.707.567.949.69.242l.049-.281c.121-.7-.568-.947-.69-.242Z" transform="translate(-448.074 -286.351)" fill="#fff"/>
          <path id="Path_41" data-name="Path 41" d="M456.531,290.081c.2-1.164,1.406-.74,1.2.422l-.049.281c-.2,1.161-1.407.742-1.2-.422Zm.208.371c-.123.707.567.949.69.242l.049-.282c.121-.7-.568-.947-.69-.242Z" transform="translate(-454.206 -288.499)" fill="#fff"/>
        </g>
        <g id="Group_65" data-name="Group 65" transform="translate(29.384 15.486)">
          <path id="Path_42" data-name="Path 42" d="M391.378,288.055l-.031-.3a.441.441,0,0,1-.3.279c-.282.059-.6-.044-.647-.538a.688.688,0,0,1,.51-.782.539.539,0,0,1,.653.54l.078.74a.667.667,0,0,1-.507.772.487.487,0,0,1-.643-.463l.263-.056c.019.175.192.228.342.2a.363.363,0,0,0,.282-.4Zm-.718-.613a.275.275,0,0,0,.351.268.355.355,0,0,0,.288-.4.273.273,0,0,0-.356-.254A.346.346,0,0,0,390.66,287.442Z" transform="translate(-390.393 -286.408)" fill="#fff"/>
          <path id="Path_43" data-name="Path 43" d="M397.935,286.109c-.125-1.185,1.1-1.444,1.226-.261l.03.287c.125,1.183-1.1,1.446-1.227.261Zm.292.231c.076.72.779.571.7-.149l-.031-.287c-.075-.709-.779-.568-.7.149Z" transform="translate(-396.555 -285.08)" fill="#fff"/>
        </g>
        <g id="Group_66" data-name="Group 66" transform="translate(21.38 20.689)">
          <path id="Path_44" data-name="Path 44" d="M346.641,316.4a.431.431,0,0,1-.217-.354.631.631,0,0,1,.5-.724.5.5,0,0,1,.637.482.486.486,0,0,1-.14.412.48.48,0,0,1,.258.4.655.655,0,0,1-.537.773.518.518,0,0,1-.669-.516A.569.569,0,0,1,346.641,316.4Zm.377-.208a.319.319,0,0,0,.266-.34.245.245,0,0,0-.327-.218.315.315,0,0,0-.264.344A.254.254,0,0,0,347.017,316.187Zm-.269.626a.269.269,0,0,0,.359.228.342.342,0,0,0,.3-.367c-.023-.2-.182-.252-.358-.214A.338.338,0,0,0,346.748,316.813Z" transform="translate(-346.419 -315.005)" fill="#fff"/>
          <path id="Path_45" data-name="Path 45" d="M353.921,314.694c-.125-1.185,1.1-1.444,1.226-.262l.031.286c.124,1.183-1.1,1.447-1.226.262Zm.292.23c.076.72.779.571.7-.149l-.03-.286c-.075-.709-.779-.568-.7.149Z" transform="translate(-352.548 -313.664)" fill="#fff"/>
        </g>
        <g id="Group_67" data-name="Group 67" transform="translate(14.865 30.402)">
          <path id="Path_46" data-name="Path 46" d="M310.943,370.355l.4-1.749-.681.145-.038-.358,1.027-.219.035.2-.438,1.92Z" transform="translate(-310.623 -367.965)" fill="#fff"/>
          <path id="Path_47" data-name="Path 47" d="M317.442,368.056c-.125-1.185,1.1-1.444,1.226-.261l.03.286c.125,1.183-1.1,1.446-1.227.261Zm.292.231c.076.72.779.57.7-.15l-.03-.286c-.075-.709-.779-.567-.7.15Z" transform="translate(-316.193 -367.027)" fill="#fff"/>
        </g>
        <g id="Group_68" data-name="Group 68" transform="translate(11.85 39.067)">
          <path id="Path_48" data-name="Path 48" d="M294.326,416.939l.031.3a.442.442,0,0,1,.3-.278c.282-.06.595.045.647.538a.687.687,0,0,1-.51.782.539.539,0,0,1-.653-.539l-.078-.741a.669.669,0,0,1,.507-.772.482.482,0,0,1,.636.465l-.264.057a.251.251,0,0,0-.334-.2.363.363,0,0,0-.282.4Zm.718.613a.274.274,0,0,0-.351-.268.353.353,0,0,0-.288.4.273.273,0,0,0,.356.255A.347.347,0,0,0,295.044,417.552Z" transform="translate(-294.059 -415.922)" fill="#fff"/>
          <path id="Path_49" data-name="Path 49" d="M301.463,415.663c-.125-1.185,1.1-1.444,1.226-.261l.03.286c.125,1.184-1.1,1.447-1.226.261Zm.292.231c.076.72.78.57.7-.15l-.03-.286c-.075-.709-.779-.567-.7.15Z" transform="translate(-300.108 -414.634)" fill="#fff"/>
        </g>
        <g id="Group_69" data-name="Group 69" transform="translate(12.576 49.949)">
          <path id="Path_50" data-name="Path 50" d="M299.1,476.017l-.755.16.037.349.272-.057c.3-.063.582.053.629.519a.661.661,0,0,1-.477.782c-.308.065-.588-.033-.639-.5l.262-.055c.023.218.2.238.337.21a.332.332,0,0,0,.256-.382.243.243,0,0,0-.33-.226l-.529.113c-.038-.357-.073-.689-.111-1.049l1.013-.216Z" transform="translate(-298.048 -475.438)" fill="#fff"/>
          <path id="Path_51" data-name="Path 51" d="M305.173,475.446c-.125-1.186,1.1-1.444,1.226-.261l.03.286c.125,1.183-1.1,1.446-1.226.261Zm.292.231c.076.72.779.57.7-.15l-.03-.286c-.075-.71-.779-.567-.7.15Z" transform="translate(-303.868 -474.416)" fill="#fff"/>
        </g>
        <path id="Path_52" data-name="Path 52" d="M366.088,244.865l13.459-36.6,1.352.887-10.933,38.332Z" transform="translate(-341.127 -206.76)" fill="#fff"/>
        <path id="Path_53" data-name="Path 53" d="M400.626,210.947,393.592,235.6l-1.1.6-1.441.786Z" transform="translate(-361.545 -208.954)" fill="#fff"/>
        <path id="Path_54" data-name="Path 54" d="M407.1,210.947,400.07,235.6l-1.1.6Z" transform="translate(-368.023 -208.954)" fill="#fff"/>
      </g>
      <g id="Group_71" data-name="Group 71" transform="translate(19.451 60.29)">
        <path id="Path_55" data-name="Path 55" d="M464.746,531.229l-3.3,8.052H335.818l2.255-8.052Z" transform="translate(-335.818 -531.229)" fill="#fff"/>
        <path id="Path_56" data-name="Path 56" d="M462.982,554.751l-1.541,3.754H335.818l1.057-3.773Z" transform="translate(-335.818 -550.454)" fill="#fff"/>
      </g>
      <g id="Group_72" data-name="Group 72" transform="translate(22.016 12.88)">
        <path id="Path_57" data-name="Path 57" d="M449.87,287.675l-51.347-.777a67.011,67.011,0,0,1,19.006-11.055c7.1-2.661,15.612-4.3,24.53-2.58,7.367,1.395,17.194,6.745,22.723,10l1.138-2.325s-12.153-6.571-19.852-8.9c-5.506-1.663-13.96-2-25.914.774a130.63,130.63,0,0,0-15.968,4.894,190.035,190.035,0,0,0-20.937,9.157,5.833,5.833,0,0,1-3.042,3.153l70.087-.973Z" transform="translate(-374.692 -270.763)" fill="#fff"/>
        <path id="Path_58" data-name="Path 58" d="M367.5,380.554s-.261,1.243-2.826,1.548-10.4.327-11.778,5.472c-.921,2.7-1.589,2.736-2.457,2.66s-.445-2.169-.276-3.4a23.322,23.322,0,0,1,1.336-5.35.653.653,0,0,1,.312-.307,9.326,9.326,0,0,1,3.368-.506C357.968,380.612,367.5,380.554,367.5,380.554Z" transform="translate(-349.915 -360.57)" fill="#fff"/>
        <path id="Path_59" data-name="Path 59" d="M354.286,394.66c.337,0,.712.055,1.42-2.008a6.73,6.73,0,0,1,3.435-4.179c.442-.243.312-1.174-.161-1.166l-.256.005a12.335,12.335,0,0,0-2.546.268,1.24,1.24,0,0,0-.822.892,30.117,30.117,0,0,0-.886,4.1c-.019.144-.043.3-.067.461a15,15,0,0,0-.174,1.546Z" transform="translate(-353.442 -366.094)" fill="#fff"/>
        <path id="Path_60" data-name="Path 60" d="M368.172,360.2a6.881,6.881,0,0,1-2.242.611c-1.182.087-3.67.022-3.517,2.376H364.5A6.682,6.682,0,0,0,368.172,360.2Z" transform="translate(-360.133 -343.924)" fill="#fff"/>
        <path id="Path_61" data-name="Path 61" d="M366.355,367.356a.222.222,0,0,0,.07-.011,6.43,6.43,0,0,0,2.254-1.366,5.83,5.83,0,0,1-.8.117c-.1.007-.2.013-.318.02-.817.047-2.185.127-2.66.9a1.113,1.113,0,0,0-.137.342Z" transform="translate(-362.062 -348.648)" fill="#fff"/>
        <path id="Path_62" data-name="Path 62" d="M430.713,296.958s-18.573,4.448-31.292,12.035l12.711-.523S422,299.4,430.713,296.958Z" transform="translate(-390.41 -292.19)" fill="#fff"/>
        <path id="Path_63" data-name="Path 63" d="M818.649,335.658l.747,2.4c28.379,1.962,40.818,1.613,40.818,1.613L833.9,331.413l-8.635-2.71-.739,1.369-.521.964,7.494,5.8-.693-.064Z" transform="translate(-733.331 -318.157)" fill="#fff"/>
        <path id="Path_64" data-name="Path 64" d="M858.805,339.34l6.1,4.723a1.989,1.989,0,0,1,.588,1.838c6.744.366,12.178.573,16.41.688Z" transform="translate(-766.177 -326.858)" fill="#fff"/>
        <path id="Path_65" data-name="Path 65" d="M781.657,354.135s-2.626-2.529-4.515-2.834-2.994,1.4-2.733,3.619,2.242,2.747,3.9,2.682a17.576,17.576,0,0,0,4.121-.959Z" transform="translate(-697.112 -336.612)" fill="#fff"/>
        <path id="Path_66" data-name="Path 66" d="M780.7,360.537c.084,0,.167,0,.25,0a14.544,14.544,0,0,0,3.312-.706l-.419-1.358c-.552-.505-2.624-2.325-4.111-2.565a2.28,2.28,0,0,0-.362-.03,1.59,1.59,0,0,0-1.418.79,3.046,3.046,0,0,0-.3,1.888C777.858,360.343,779.852,360.537,780.7,360.537Z" transform="translate(-699.768 -340.381)" fill="#fff"/>
        <path id="Path_67" data-name="Path 67" d="M595.968,289.515l33.713,8.279c4.892-.92,12.291,1.765,16.057,3.343l-4.237-3.278,0,0-.172-.134,0,0-.359-.211-.01-.006c-6.458-3.8-15.6-8.61-22.513-9.918a39.137,39.137,0,0,0-7.369-.693A47.17,47.17,0,0,0,595.968,289.515Z" transform="translate(-551.182 -283.956)" fill="#fff"/>
      </g>
      <text id="AutoCars.uae" transform="translate(34.349 49.194)" fill="#fff" font-size="15" font-family="Bauhaus93, 'Bauhaus \39 3'"><tspan x="0" y="0">AutoCars</tspan><tspan y="0" font-size="11">.</tspan><tspan y="0" font-size="10">uae</tspan></text>
      <text id="t_h_e_n_u_m_b_e_r_o_n_e" data-name="t h e   n u m b e r  o n e" transform="translate(46.684 65.921)" fill="#fff" stroke="#fd4c4c" stroke-miterlimit="10" stroke-width="1" font-size="6" font-family="CopperplateGothic-Bold, Copperplate Gothic" font-weight="700"><tspan x="0" y="0" xml:space="preserve">t h e   n u m b e r  o n e</tspan></text>
    </g>
  </g>
</svg>
