<svg xmlns="http://www.w3.org/2000/svg" xmlns:xlink="http://www.w3.org/1999/xlink" width="198.975" height="63.911" viewBox="0 0 198.975 63.911">
  <defs>
    <clipPath id="clip-path">
      <rect width="198.975" height="63.911" fill="none"/>
    </clipPath>
    <linearGradient id="linear-gradient" x1="-0.824" y1="0.085" x2="0.553" y2="0.454" gradientUnits="objectBoundingBox">
      <stop offset="0.503" stop-color="#a7a9ac"/>
      <stop offset="1" stop-color="#f2f2f2"/>
    </linearGradient>
    <linearGradient id="linear-gradient-2" x1="1.749" y1="1.199" x2="0.893" y2="0.22" gradientUnits="objectBoundingBox">
      <stop offset="0" stop-color="red"/>
      <stop offset="0.764" stop-color="red"/>
      <stop offset="1" stop-color="#f95858"/>
    </linearGradient>
    <linearGradient id="linear-gradient-3" x1="1.41" y1="1.227" x2="1.175" y2="0.439" xlink:href="#linear-gradient-2"/>
    <linearGradient id="linear-gradient-4" x1="0.878" y1="1.844" x2="1.043" y2="0.507" xlink:href="#linear-gradient-2"/>
    <linearGradient id="linear-gradient-5" x1="0.57" y1="1.229" x2="1.158" y2="0.723" xlink:href="#linear-gradient-2"/>
  </defs>
  <g id="Repeat_Grid_2" data-name="Repeat Grid 2" clip-path="url(#clip-path)">
    <g id="Group_97" data-name="Group 97" transform="translate(-15.025 -18.089)">
      <g id="Group_74" data-name="Group 74" transform="translate(15.025 18.089)">
        <path id="Path_26" data-name="Path 26" d="M264.723,200.06a28.848,28.848,0,0,0-15.8,3.77l-2.073-1.662-3.059,2.963-.053,3.208a40.657,40.657,0,0,0-4.339,5.545l-2.179-.57-3.576,6.056,1.144,3.521a51.64,51.64,0,0,0-1.855,5.721V228.6l-3.081.226-.9,9.876,2.434,1.57c0,.11,0,.221,0,.331a33.651,33.651,0,0,0,.308,4.227l-2.54,3.182,1.972,6.333,3.6-.766a16.484,16.484,0,0,0,1.244,1.7l-.844,5.339,4.75,3.287,2.543-4.043a15.3,15.3,0,0,0,2.948.768l.731-2.139c-5.159-.771-9.24-4.814-11.212-10.135a28.122,28.122,0,0,1-1.346-12.869C237.562,201.206,264.723,200.06,264.723,200.06Z" transform="translate(-228.958 -200)" fill="#fff"/>
        <path id="Path_27" data-name="Path 27" d="M238.766,274.17l.823-5.2-.25-.3a15.843,15.843,0,0,1-1.192-1.632l-.194-.3-3.476.74-1.646-5.286,2.477-3.1-.06-.432a32.761,32.761,0,0,1-.3-4.092c0-.06,0-.12,0-.18v-.143l0-.49-2.385-1.538.788-8.681,2.632-.193.353-.173.124-.318a50.825,50.825,0,0,1,1.821-5.616l.132-.34-1.115-3.432,3.154-5.342,2.16.565.2-.308a40.039,40.039,0,0,1,4.268-5.454l.209-.223.052-3.186,2.554-2.473,2,1.6.235-.125a38.535,38.535,0,0,1,3.967-1.835c-.87.442-1.76.941-2.658,1.505-6.775,4.248-15.3,13.1-17.411,31.15a28.946,28.946,0,0,0,1.4,13.352c2.055,5.545,6.085,9.379,10.876,10.4l-.236.69a15.426,15.426,0,0,1-2.493-.685l-.319-.119-2.491,3.96Z" transform="translate(-231.975 -213.969)" fill="url(#linear-gradient)"/>
        <path id="Path_28" data-name="Path 28" d="M288.147,504.394a16.384,16.384,0,0,1-8.818-7.795l1.544-.6A16.922,16.922,0,0,0,288.147,504.394Z" transform="translate(-271.137 -447.866)" fill="red"/>
        <path id="Path_29" data-name="Path 29" d="M267.963,427.283a23.5,23.5,0,0,0,.846,9.623l-1.667.645a23.847,23.847,0,0,1-1.509-10.024Z" transform="translate(-259.642 -390.321)" fill="red"/>
        <path id="Path_30" data-name="Path 30" d="M269.872,341.776l2.145,2.251a37.629,37.629,0,0,0-2.221,6.164,36.955,36.955,0,0,0-.8,3.754l-2.433.254A42.154,42.154,0,0,1,269.872,341.776Z" transform="translate(-260.446 -318.72)" fill="red"/>
        <path id="Path_31" data-name="Path 31" d="M297.87,270.233l1.569,3.809a37.8,37.8,0,0,0-3.825,4.576,33.549,33.549,0,0,0-2.5,4.1l-2.179-2.287A37.136,37.136,0,0,1,297.87,270.233Z" transform="translate(-280.855 -258.811)" fill="red"/>
        <path id="Path_32" data-name="Path 32" d="M294.266,284.506a36.594,36.594,0,0,1,6.272-9.25l1.168,2.835a38.658,38.658,0,0,0-3.58,4.333,34.156,34.156,0,0,0-2.3,3.715Z" transform="translate(-283.645 -263.018)" fill="url(#linear-gradient-2)"/>
        <path id="Path_33" data-name="Path 33" d="M340.889,234.446a31.228,31.228,0,0,1,7.2-4.693l.519,4.913a20.28,20.28,0,0,0-7.293,4.511l-1.563-3.787Q340.317,234.885,340.889,234.446Z" transform="translate(-321.734 -224.914)" fill="red"/>
        <path id="Path_34" data-name="Path 34" d="M343.056,239.394c.258-.22.522-.435.789-.641a31.856,31.856,0,0,1,6.688-4.445l.4,3.746a20.5,20.5,0,0,0-6.714,4.149Z" transform="translate(-324.501 -228.729)" fill="url(#linear-gradient-3)"/>
        <path id="Path_35" data-name="Path 35" d="M409.718,221.106l-1.692,6.108c-.168-.106-.34-.206-.514-.3a13.531,13.531,0,0,0-8.795-.918l-.535-5.063A14.136,14.136,0,0,1,409.718,221.106Z" transform="translate(-370.662 -216.577)" fill="red"/>
        <path id="Path_36" data-name="Path 36" d="M409.93,229.281l-.013-.006a13.9,13.9,0,0,0-8.58-1.023l-.423-4.005a17.578,17.578,0,0,1,2.3-.661,13.315,13.315,0,0,1,8.272.772l-1.389,5.015Z" transform="translate(-372.95 -219.476)" fill="url(#linear-gradient-4)"/>
        <path id="Path_37" data-name="Path 37" d="M469.009,243.593q-.008-.131-.021-.26a8.628,8.628,0,0,0-3.6-5.558l1.733-6.259c5.407,2.586,8.348,9.742,8.348,9.742Z" transform="translate(-426.938 -226.391)" fill="red"/>
        <path id="Path_38" data-name="Path 38" d="M471.863,246.625a9.256,9.256,0,0,0-3.432-5.273l1.457-5.264c4.173,2.556,6.365,7.011,7.119,8.414Z" transform="translate(-429.487 -230.219)" fill="url(#linear-gradient-5)"/>
        <g id="Group_64" data-name="Group 64" transform="translate(34.985 13.74)">
          <path id="Path_39" data-name="Path 39" d="M444.133,285.955l.184.064.2-1.164-.191-.067.052-.3.421.147-.254,1.463.17.06-.049.278-.584-.2Z" transform="translate(-444.084 -284.489)" fill="#fff"/>
          <path id="Path_40" data-name="Path 40" d="M449.026,287.381c.181-1.04,1.256-.661,1.076.376l-.044.252c-.18,1.037-1.256.663-1.076-.377Zm.186.331c-.11.632.507.848.617.216l.044-.251c.108-.623-.507-.846-.617-.216Z" transform="translate(-448.169 -286.395)" fill="#fff"/>
          <path id="Path_41" data-name="Path 41" d="M456.523,290.008c.181-1.04,1.256-.661,1.076.377l-.044.251c-.18,1.037-1.257.663-1.076-.377Zm.186.332c-.11.632.507.848.616.216l.044-.252c.108-.622-.507-.846-.617-.216Z" transform="translate(-454.446 -288.594)" fill="#fff"/>
        </g>
        <g id="Group_65" data-name="Group 65" transform="translate(26.253 13.836)">
          <path id="Path_42" data-name="Path 42" d="M391.273,287.911l-.028-.267a.394.394,0,0,1-.269.249c-.252.053-.532-.039-.578-.481a.614.614,0,0,1,.456-.7.482.482,0,0,1,.584.483l.07.661a.6.6,0,0,1-.453.689.435.435,0,0,1-.575-.413l.235-.05c.017.157.172.2.305.175a.324.324,0,0,0,.252-.36Zm-.642-.548a.246.246,0,0,0,.314.24.317.317,0,0,0,.257-.361.244.244,0,0,0-.318-.227A.309.309,0,0,0,390.632,287.363Z" transform="translate(-390.393 -286.44)" fill="#fff"/>
          <path id="Path_43" data-name="Path 43" d="M397.934,286c-.112-1.059.984-1.29,1.1-.233l.027.256c.112,1.057-.984,1.292-1.1.233Zm.261.206c.068.643.7.51.628-.133l-.027-.257c-.067-.633-.7-.508-.628.134Z" transform="translate(-396.701 -285.08)" fill="#fff"/>
        </g>
        <g id="Group_66" data-name="Group 66" transform="translate(19.102 18.485)">
          <path id="Path_44" data-name="Path 44" d="M346.617,316.279a.385.385,0,0,1-.194-.316.563.563,0,0,1,.447-.647.449.449,0,0,1,.569.431.434.434,0,0,1-.125.368.429.429,0,0,1,.23.355.585.585,0,0,1-.48.69.463.463,0,0,1-.6-.461A.509.509,0,0,1,346.617,316.279Zm.336-.186a.285.285,0,0,0,.238-.3.219.219,0,0,0-.292-.194.281.281,0,0,0-.236.307A.227.227,0,0,0,346.953,316.093Zm-.24.559a.241.241,0,0,0,.321.2.306.306,0,0,0,.265-.328c-.02-.175-.162-.225-.32-.191A.3.3,0,0,0,346.713,316.652Z" transform="translate(-346.419 -315.037)" fill="#fff"/>
          <path id="Path_45" data-name="Path 45" d="M353.92,314.584c-.112-1.059.985-1.29,1.1-.234l.027.256c.111,1.057-.984,1.293-1.1.234Zm.261.206c.068.644.7.51.628-.133l-.027-.256c-.067-.633-.7-.508-.628.134Z" transform="translate(-352.693 -313.664)" fill="#fff"/>
        </g>
        <g id="Group_67" data-name="Group 67" transform="translate(13.281 27.163)">
          <path id="Path_46" data-name="Path 46" d="M310.909,370.123l.357-1.563-.609.129-.034-.32.917-.2.031.175-.392,1.716Z" transform="translate(-310.623 -367.987)" fill="#fff"/>
          <path id="Path_47" data-name="Path 47" d="M317.441,367.946c-.112-1.059.984-1.29,1.1-.233l.027.256c.112,1.057-.984,1.292-1.1.233Zm.261.206c.068.643.7.509.628-.134l-.027-.256c-.067-.633-.7-.507-.628.134Z" transform="translate(-316.326 -367.027)" fill="#fff"/>
        </g>
        <g id="Group_68" data-name="Group 68" transform="translate(10.587 34.905)">
          <path id="Path_48" data-name="Path 48" d="M294.3,416.861l.028.266a.4.4,0,0,1,.269-.249c.252-.054.531.04.578.481a.614.614,0,0,1-.455.7.482.482,0,0,1-.584-.482l-.07-.662a.6.6,0,0,1,.453-.69.431.431,0,0,1,.568.416l-.236.051a.224.224,0,0,0-.3-.178.325.325,0,0,0-.252.359Zm.642.547a.245.245,0,0,0-.314-.239.316.316,0,0,0-.258.361.244.244,0,0,0,.318.228A.31.31,0,0,0,294.94,417.409Z" transform="translate(-294.059 -415.952)" fill="#fff"/>
          <path id="Path_49" data-name="Path 49" d="M301.462,415.554c-.112-1.059.984-1.29,1.1-.233l.027.256c.112,1.057-.984,1.293-1.1.233Zm.261.206c.068.643.7.509.628-.134l-.027-.256c-.067-.633-.7-.507-.628.134Z" transform="translate(-300.251 -414.634)" fill="#fff"/>
        </g>
        <g id="Group_69" data-name="Group 69" transform="translate(11.236 44.627)">
          <path id="Path_50" data-name="Path 50" d="M298.986,475.979l-.674.143.033.312.243-.051c.266-.057.52.047.562.463a.591.591,0,0,1-.426.7c-.275.058-.525-.03-.571-.445l.234-.049c.021.195.183.212.3.187a.3.3,0,0,0,.228-.342.217.217,0,0,0-.3-.2l-.473.1c-.034-.319-.065-.615-.1-.937l.9-.193Z" transform="translate(-298.048 -475.462)" fill="#fff"/>
          <path id="Path_51" data-name="Path 51" d="M305.172,475.336c-.112-1.06.984-1.29,1.1-.233l.027.256c.112,1.057-.984,1.292-1.1.233Zm.261.206c.068.643.7.509.628-.134l-.027-.256c-.067-.634-.7-.507-.628.134Z" transform="translate(-304.006 -474.416)" fill="#fff"/>
        </g>
        <path id="Path_52" data-name="Path 52" d="M366.088,240.965l12.025-32.7,1.208.793L369.553,243.3Z" transform="translate(-343.787 -206.92)"/>
        <path id="Path_53" data-name="Path 53" d="M399.605,210.947l-6.285,22.03-.985.539-1.288.7Z" transform="translate(-364.688 -209.167)" fill="#fff"/>
        <path id="Path_54" data-name="Path 54" d="M406.237,210.947l-6.285,22.03-.985.539Z" transform="translate(-371.32 -209.167)" fill="#939598"/>
      </g>
      <text id="AutoCars.uae" transform="translate(43 63.403)" font-size="31" font-family="Bauhaus93, 'Bauhaus \39 3'"><tspan x="0" y="0">Auto</tspan><tspan y="0" fill="red">Cars</tspan><tspan y="0" font-size="22">.uae</tspan></text>
    </g>
  </g>
</svg>
